/* XPM */
static char *ef6e9d28f3d145ff910d697c6a158eafzENuyZf3meknnJoT[] = {
/* columns rows colors chars-per-pixel */
"32 32 199 2 ",
"   c #000000",
".  c #0A0503",
"X  c #0B0A05",
"o  c #07060B",
"O  c #060A0D",
"+  c #0C0B0B",
"@  c #150706",
"#  c #150B06",
"$  c #1D0C02",
"%  c #120E0A",
"&  c #0C1309",
"*  c #14120A",
"=  c #1A1209",
"-  c #060B11",
";  c #0D0D12",
":  c #110F10",
">  c #0F1418",
",  c #141214",
"<  c #191312",
"1  c #191914",
"2  c #141619",
"3  c #1A1A1B",
"4  c #281807",
"5  c #23160B",
"6  c #321407",
"7  c #371B0A",
"8  c #211C14",
"9  c #231D1C",
"0  c #281A19",
"q  c #3D1F15",
"w  c #1B231E",
"e  c #2F2A0D",
"r  c #22231D",
"t  c #2B231D",
"y  c #3A2817",
"u  c #201E23",
"i  c #1F2224",
"p  c #242425",
"a  c #222529",
"s  c #2B2A29",
"d  c #362A27",
"f  c #353326",
"g  c #2C3135",
"h  c #33373D",
"j  c #383A3C",
"k  c #4C2E0C",
"l  c #472F17",
"z  c #47321D",
"x  c #4D341D",
"c  c #553C1E",
"v  c #583D1F",
"b  c #432A26",
"n  c #463828",
"m  c #5A3620",
"M  c #533D23",
"N  c #5D411C",
"B  c #62421C",
"V  c #764A19",
"C  c #574527",
"Z  c #5A442B",
"A  c #4B4338",
"S  c #5B4A34",
"D  c #574539",
"F  c #634828",
"G  c #75492B",
"H  c #765526",
"J  c #6A4F34",
"K  c #615636",
"L  c #785835",
"P  c #686137",
"I  c #7A603F",
"U  c #3C3B40",
"Y  c #544B44",
"T  c #5C544B",
"R  c #59595B",
"E  c #6A4C44",
"W  c #754F46",
"Q  c #6E5D41",
"!  c #7A5E5A",
"~  c #7B6641",
"^  c #6B675B",
"/  c #6D695E",
"(  c #7E6C59",
")  c #747053",
"_  c #890409",
"`  c #B3321F",
"'  c #CA0018",
"]  c #844D24",
"[  c #8C592A",
"{  c #985329",
"}  c #875A36",
"|  c #935935",
" . c #A14226",
".. c #876427",
"X. c #93642E",
"o. c #966D2F",
"O. c #866637",
"+. c #84623B",
"@. c #966C39",
"#. c #99693B",
"$. c #8C743B",
"%. c #A96E34",
"&. c #886B4D",
"*. c #956746",
"=. c #867546",
"-. c #9D7E4F",
";. c #876C57",
":. c #827064",
">. c #957A65",
",. c #917D74",
"<. c #8B9E5C",
"1. c #AB8944",
"2. c #B88C45",
"3. c #B69E48",
"4. c #A68B5A",
"5. c #B88C59",
"6. c #BC975B",
"7. c #BAAA55",
"8. c #8F8369",
"9. c #96816E",
"0. c #8B8679",
"q. c #968F7D",
"w. c #A58D6A",
"e. c #AE9E62",
"r. c #AD9772",
"t. c #A6A562",
"y. c #B4A266",
"u. c #B5A96F",
"i. c #BFB26C",
"p. c #A8A272",
"a. c #C3964C",
"s. c #C59559",
"d. c #CFA74F",
"f. c #C2A656",
"g. c #D4A657",
"h. c #CEB759",
"j. c #D6B35D",
"k. c #C4A667",
"l. c #C6AA62",
"z. c #D4AA60",
"x. c #D5B36B",
"c. c #DABB6C",
"v. c #C6A575",
"b. c #DCBD75",
"n. c #E5B561",
"m. c #EBB376",
"M. c #DBC677",
"N. c #DDC27D",
"B. c #E4C27B",
"V. c #EBCE7D",
"C. c #938B80",
"Z. c #9B978E",
"A. c #9F9E9A",
"S. c #B09987",
"D. c #BCAE87",
"F. c #A7A697",
"G. c #B8A598",
"H. c #B9B4A6",
"J. c #BCB3AC",
"K. c #D5BA83",
"L. c #E4B589",
"P. c #C0B9AF",
"I. c #C5BFB3",
"U. c #C3BEB8",
"Y. c #CDC98B",
"T. c #DAC294",
"R. c #E3CC86",
"E. c #EACD85",
"W. c #EBCD8D",
"Q. c #F3CF85",
"!. c #EFDA85",
"~. c #ECD389",
"^. c #F1D88B",
"/. c #F1CD93",
"(. c #ECD695",
"). c #F5DA97",
"_. c #F4E399",
"`. c #FCE39B",
"'. c #C6C1A3",
"]. c #CEC6BB",
"[. c #D0CBB8",
"{. c #E8D1A8",
"}. c #F0DCA7",
"|. c #F2D9B0",
" X c #F5E3A4",
".X c #FAE6A1",
"XX c #F8EBA5",
"oX c #F9F1A0",
"OX c #FAE8B9",
"+X c #C6C7C1",
"@X c #D9C8C0",
"#X c #D4D0C7",
"$X c #E5DBCA",
"%X c #EDE2C2",
"&X c #FDE7C2",
"*X c #F4F1C8",
"=X c #F6ECD4",
"-X c #F9F5D8",
";X c #F8F5EC",
/* pixels */
"                                                                ",
"                                                                ",
"                                                                ",
"                                                                ",
"                                                                ",
"                                                                ",
"                                                                ",
"                        O   H.P.+X].H.U.h                       ",
"                      h K.A.s j g g a p c.1                     ",
"                    R e.v.Z.;X#XF.0.I.$XK g.3                   ",
"                  , B S ^ I. .u.}.%Xm.9.F.5 1.;                 ",
"                + D.: 0.` u w w a i r f <.q.9 n.+               ",
"            + ; # @ / =X$._.7.XXt.3.f.!.j.y.=X0 6 1 ,           ",
"  : ; ; , o 2 s T A [.& 1 r ) y.i.y.e r r f x.;.y ^ 1 + + + 9   ",
"  8 . o % + . c Z F +.4.*.k.l._.*X X.XoXY.Q...$.c V < + * % 3   ",
"  '.+ *.< X y x S L 4.~ B.l.!.l.V.1.E.E.E.5.X.o.v 2.2.% = * t   ",
"  G [ . + + l C $ H ~ P x.c..X~. X(.~.^.f...=.H | a.[ X X +.&X  ",
"  J [ . X X M { z O.S V b.b.1.(.l.^.h.).W.R. Xk.@.a.[ X % M !   ",
"  T G t + . ] %.N k c v.6.R.).`.M.V.E.6.b.L -.O.O.1.X.X X &.    ",
"  s + . X . x 1 I F C 3 8 5 y =.C w.Q Z z n g.( &.* $ X S.;     ",
"    ; . . . X s.. J.{.d.b.c.`.N.b.B.H /.H j.r.H.% 5.+ X + 2     ",
"    ; o , . ; = @.  A =Xy 8.Y.R.OXOXT.|._ >.$X  z.C.+ + + 3     ",
"              ; L 5 % G.-X9 1 < .     | ( @XX } ; + O - - .     ",
"                , L.< * G.W.p.s.w.' >.W G.  6 7 +               ",
"                  s #.@ < D :.G.D D ,.G.  E 6 o                 ",
"                    o m 4 . # .   .   . b 7 +                   ",
"                    , Y 8 d n + d , 0 0 q 3                     ",
"                        > ; 2 2 j a U 2 i                       ",
"                                                                ",
"                                                                ",
"                                                                ",
"                                                                "
};
