/* XPM */
static char *e156a66932cb48a3b3f952283de24decdgapYqwf7ysJ6bZ7[] = {
/* columns rows colors chars-per-pixel */
"32 32 100 2 ",
"   c None",
".  c #020202",
"X  c #0C0C0C",
"o  c #120D0F",
"O  c #130E11",
"+  c #0F1010",
"@  c #141413",
"#  c #1B1315",
"$  c #171918",
"%  c #1C1B1C",
"&  c #211F1F",
"*  c #21211F",
"=  c #05332E",
"-  c #08372E",
";  c #232323",
":  c #272827",
">  c #2A2B2B",
",  c #233426",
"<  c #2F312F",
"1  c #313331",
"2  c #3C3E3C",
"3  c #5D1315",
"4  c #5F121A",
"5  c #602022",
"6  c #3D403E",
"7  c #14514C",
"8  c #374F41",
"9  c #22514A",
"0  c #404140",
"q  c #4D4F4E",
"w  c #545755",
"e  c #565856",
"r  c #575958",
"t  c #5A5C5A",
"y  c #5D605F",
"u  c #426762",
"i  c #426A66",
"p  c #636563",
"a  c #666967",
"s  c #676A68",
"d  c #6B6D6B",
"f  c #6F716F",
"g  c #727473",
"h  c #777977",
"j  c #7B7D7B",
"k  c #870005",
"l  c #910006",
"z  c #9D000C",
"x  c #9B0010",
"c  c #891F1E",
"v  c #A40016",
"b  c #B4001B",
"n  c #BB001C",
"m  c #CD001E",
"M  c #CE0B19",
"N  c #D5001E",
"B  c #DA001E",
"V  c #D60D1B",
"C  c #EB001E",
"Z  c #F0001C",
"A  c #FD001F",
"S  c #CC0022",
"D  c #D40022",
"F  c #DC0023",
"G  c #E50025",
"H  c #EC0025",
"J  c #E50029",
"K  c #EB0029",
"L  c #F70026",
"P  c #F00026",
"I  c #F90021",
"U  c #F80022",
"Y  c #F80025",
"T  c #F30028",
"R  c #F40029",
"E  c #F60028",
"W  c #FA0029",
"Q  c #F8002A",
"!  c #FD0028",
"~  c #C52F39",
"^  c #7E807E",
"/  c #7F817F",
"(  c #818381",
")  c #808480",
"_  c #838583",
"`  c #868886",
"'  c #868987",
"]  c #989896",
"[  c #9D9D9C",
"{  c #9A9B99",
"}  c #A5A6A5",
"|  c #A9ABAA",
" . c #AAB8B4",
".. c #B9BCB9",
"X. c #BDBDBC",
"o. c #AEC4B8",
"O. c #B5CCCF",
"+. c #B0D5CE",
"@. c #E3FAF9",
"#. c #F0F7F6",
/* pixels */
"                  p 6 2 2 2 2 6 2 2 2 2 2 2 a                   ",
"                t % % % ; % % % % ; % % % % $ w                 ",
"              t ;         g                   % r               ",
"            p >   .         $                   ; d             ",
"          p 1                                     ; s           ",
"        a < g                           :           ; a         ",
"      p >     $                           1         0 < d       ",
"    p >                           .         1           > d     ",
"  p >                 .   r >   <   .     ;               < a   ",
"g >       y                 ;         @   .                 < j ",
"r >           ! F B   C H 8 o.D m F G H ; B m D H A       @ < a ",
"r 1           W H ,   D G . Z H F m F I #.K F S F H O.  @   < a ",
"r >           H R   V B N               B W P               > p ",
"w > . X     M G H   T H K   G R W J F   J H 5               > a ",
"w ;     .   n D L   L Y   ~ F G 4 4 3   S F       .         > p ",
"r >       X v b +.@.G T   b S I       c b D                 > p ",
"w ;         l v n S F G   z b  .      k x b S F K           ; p ",
"w >           i u u 9     i =           7 = = -       .     > p ",
"r >         X     ]     & q   ..  X.w } ; @ $ X o   [       > a ",
"r >         X X @ X       * X @ X @   X   X & X #   X       > p ",
"r >         O                               ; .   $     X   2 p ",
"t >       .                           .         .           ; a ",
"g >                 ) X     2 .                         .   > h ",
"  g <         %                 .                         < `   ",
"    h <       +                                         > )     ",
"      g <   .   .                                     < (       ",
"        h >       @                                 < ^         ",
"          g >                                   g 1 j           ",
"            g ;                     X         | > `             ",
"              a $                           { ; ^               ",
"                f $ % % % % % $ $ $ $ $ % ; % h                 ",
"                  y s a d d d d d d d d d d t                   "
};
