/* XPM */
static char *d01abab1df064c948b27141beae3364ft87flrvR3xwiNyHm[] = {
/* columns rows colors chars-per-pixel */
"32 32 168 2 ",
"   c #000000",
".  c #0A0907",
"X  c #07060B",
"o  c #0A0A0C",
"O  c #14110F",
"+  c #0D0C11",
"@  c #110F10",
"#  c #151515",
"$  c #191615",
"%  c #191916",
"&  c #161619",
"*  c #19171A",
"=  c #16191B",
"-  c #1A1A1C",
";  c #280F0A",
":  c #23140F",
">  c #221614",
",  c #221916",
"<  c #2B1C17",
"1  c #211C1B",
"2  c #291E1C",
"3  c #321F1B",
"4  c #23201D",
"5  c #2A221D",
"6  c #31241E",
"7  c #3E2A1F",
"8  c #1D1D22",
"9  c #252222",
"0  c #2B2322",
"q  c #2D2928",
"w  c #342624",
"e  c #392622",
"r  c #342924",
"t  c #3B2C26",
"y  c #342B2A",
"u  c #3C2C2A",
"i  c #452E23",
"p  c #4A2E23",
"a  c #422D2A",
"s  c #453127",
"d  c #4A3126",
"f  c #45322C",
"g  c #4B342E",
"h  c #4B392D",
"j  c #523525",
"k  c #593527",
"l  c #52362D",
"z  c #543A2E",
"x  c #5A392C",
"c  c #403232",
"v  c #4A3734",
"b  c #433836",
"n  c #4D3A34",
"m  c #45393A",
"M  c #4B3E3B",
"N  c #533733",
"B  c #523D34",
"V  c #5D3D34",
"C  c #573F3C",
"Z  c #4E403D",
"A  c #574032",
"S  c #5B4135",
"D  c #54423D",
"F  c #5C433B",
"G  c #5C483D",
"H  c #68422F",
"J  c #644336",
"K  c #6D4835",
"L  c #61433C",
"P  c #6A453A",
"I  c #62493C",
"U  c #6B483A",
"Y  c #734C3D",
"T  c #7D513A",
"R  c #4D3D40",
"E  c #5A3B40",
"W  c #4D4140",
"Q  c #564340",
"!  c #584644",
"~  c #624442",
"^  c #634845",
"/  c #6C4B41",
"(  c #654D49",
")  c #754A41",
"_  c #6C5044",
"`  c #65534C",
"'  c #6D514E",
"]  c #735344",
"[  c #7C5243",
"{  c #755548",
"}  c #7A5D4F",
"|  c #705E54",
" . c #795E55",
".. c #79605B",
"X. c #7F6964",
"o. c #88563D",
"O. c #835444",
"+. c #835A45",
"@. c #8D5B46",
"#. c #845A4B",
"$. c #8D5F4A",
"%. c #925F5C",
"&. c #86614E",
"*. c #8D604D",
"=. c #936247",
"-. c #9E664D",
";. c #876051",
":. c #8A6256",
">. c #8F6857",
",. c #8D675A",
"<. c #8E695B",
"1. c #926655",
"2. c #9D6B54",
"3. c #926659",
"4. c #9F6F58",
"5. c #95715B",
"6. c #9B715B",
"7. c #A26A4F",
"8. c #A5735C",
"9. c #A9775E",
"0. c #806463",
"q. c #816861",
"w. c #8D6862",
"e. c #866D69",
"r. c #916C64",
"t. c #9A6E61",
"y. c #8E726F",
"u. c #9B7263",
"i. c #99786F",
"p. c #9A7773",
"a. c #A37662",
"s. c #A57865",
"d. c #AB7B61",
"f. c #A2776E",
"g. c #A57B6A",
"h. c #AF7F69",
"j. c #B07A60",
"k. c #B37E69",
"l. c #A37D74",
"z. c #B2866D",
"x. c #AC8375",
"c. c #A6847A",
"v. c #A88078",
"b. c #B48976",
"n. c #BA8C72",
"m. c #B3847E",
"M. c #B58C7B",
"N. c #BA9078",
"B. c #C2947C",
"V. c #B48A8B",
"C. c #BC9880",
"Z. c #BE9788",
"A. c #BE9A8A",
"S. c #B79B97",
"D. c #BBACA7",
"F. c #C39581",
"G. c #CA9D86",
"H. c #CFA18A",
"J. c #CAA491",
"K. c #D7AB92",
"L. c #DFAD96",
"P. c #D8AF9B",
"I. c #DAB298",
"U. c #E2B49C",
"Y. c #DDB3A3",
"T. c #CEC0BD",
"R. c #E7E4DF",
"E. c #EFE4DE",
/* pixels */
"              1 i d x ;.B.B.B.G.M.l.[ Y P f -                   ",
"              5 i d V #.z.B.B.8.@.[ U J S g 4                   ",
"              5 i d z Y 4.d.d.d.d.1.3./ l f 0                   ",
"              5 i d P a.N.n.n.H.C.| W c w a w                   ",
"              5 7 f n G A.I.K.P.S f ( r.] t w o                 ",
"              4 6 y Z u I 6.d.2.U >.M.b.+.z r @                 ",
"              1 r ] x.>.U k a.+.{ S u v h S t m >               ",
"              4 t l F D s A 5.*.} X.X.e.L / f ~ ,.              ",
"              $ e < w `  .S =.2.O.t.:.g.b.[ g S J               ",
"            C g s z j &.$.K -.7.O.1.8.8.k.O.g 3 <.              ",
"            p F h $.=.d.[ T 9.k.@.O.F.k.B.#.h , :.              ",
"            z d s o.a.G.H j.U.J.x.#.F.F.Y.O.h , ]               ",
"            p B f =.L.u.,.; S V g i.Z.3.g.Y v $ m               ",
"            a 6 t T h.s.1.6 M u 0 ! y.^ g x a % #               ",
"            . r 5 x Y L e 1 f S a r 0 0 y S w -                 ",
"              q 1 p e 5 Q ~ #.) ~ a w w M N 9 -                 ",
"              o * u t r : D.T.R.E.S.E ..e.r - -                 ",
"              & % 1 q.` g F r.p.V.%.S c.v - * -                 ",
"              o % % w t S L f.m.v.:.<.w.9 * - 8                 ",
"                & $ * 0 _ l B D f G u.F 8 - & 8                 ",
"                & % * - a U f w m 0.r.u * - % 8                 ",
"                + - * * 0 D a y W Q f 1 * $ * #                 ",
"                X $ * - - 9 0 0 y r 8 % * $ -                   ",
"                  - * & 8 - - 9 9 - - $ * - * $                 ",
"                  $ * * - 8 8 - - * * * - * y $                 ",
"                + * & * & & * & * * - $ * % n $ =               ",
"                $ $ $ * & $ * * * * & $ * R n , & &             ",
"              * $ 9 % $ = & & # # $ & $ c Q n O # % X           ",
"            $ $ $ 5 t 1 $ - * # % & % b ^ C n # & & % &         ",
"        $ $ $ * * O f u y $ # O O 1 M ^ ~ F D # $ & & & *       ",
"      $ $ $ * * * # a h n t 0 > 2 v S ^ ~ ^ > * - * & - 8 - 8   ",
"  o = $ $ $ $ * * % $ S J F I F S I ] ] / ' * * - * & - - - 8 = "
};
