/* XPM */
static char *aa62cab72b3546eba72f2c1c9fc8bc1fRsvijhZgmvvPWtSs[] = {
/* columns rows colors chars-per-pixel */
"32 32 209 2 ",
"   c #3A0B04",
".  c #2D1B0F",
"X  c #391307",
"o  c #381708",
"O  c #3C1E0B",
"+  c #3F0E12",
"@  c #2C1613",
"#  c #2D1E17",
"$  c #321614",
"%  c #3B1514",
"&  c #361916",
"*  c #3E1B15",
"=  c #341C1C",
"-  c #3A1B1B",
";  c #34250F",
":  c #312215",
">  c #3C2215",
",  c #3B211C",
"<  c #2B0F26",
"1  c #241E20",
"2  c #3C1424",
"3  c #351B22",
"4  c #3B1B21",
"5  c #37182A",
"6  c #351B2D",
"7  c #3E1C35",
"8  c #3C2122",
"9  c #392527",
"0  c #312028",
"q  c #460300",
"w  c #4E0401",
"e  c #460C00",
"r  c #4D0B02",
"t  c #490B0D",
"y  c #530200",
"u  c #520C03",
"i  c #5B0E02",
"p  c #5D0D0F",
"a  c #43130D",
"s  c #4D140A",
"d  c #45190B",
"f  c #4D1A09",
"g  c #571102",
"h  c #551E03",
"j  c #5A1800",
"k  c #51150C",
"l  c #5A140C",
"z  c #460F15",
"x  c #4C0D1E",
"c  c #510814",
"v  c #441110",
"b  c #4A1412",
"n  c #451A15",
"m  c #4C1218",
"M  c #461A1A",
"N  c #431D1A",
"B  c #561613",
"V  c #511C14",
"C  c #5C1B16",
"Z  c #571B1C",
"A  c #630503",
"S  c #6C0F00",
"D  c #760902",
"F  c #6A1A02",
"G  c #69170A",
"H  c #741C0E",
"J  c #671814",
"K  c #43260B",
"L  c #51220E",
"P  c #422014",
"I  c #46221D",
"U  c #4D261E",
"Y  c #5D2413",
"T  c #58211A",
"R  c #522E1E",
"E  c #48311F",
"W  c #54331A",
"Q  c #6B2705",
"!  c #762601",
"~  c #7C2C04",
"^  c #7E2A0E",
"/  c #6A350B",
"(  c #7A3506",
")  c #6C2916",
"_  c #692B1A",
"`  c #712518",
"'  c #7D3412",
"]  c #703219",
"[  c #421E27",
"{  c #432326",
"}  c #4B2524",
"|  c #462A24",
" . c #4C2B25",
".. c #44252D",
"X. c #4A272B",
"o. c #462C2B",
"O. c #4E2B2B",
"+. c #542326",
"@. c #5A2425",
"#. c #532B24",
"$. c #53252B",
"%. c #512B2C",
"&. c #5A2929",
"*. c #4E3126",
"=. c #4C312A",
"-. c #4B352D",
";. c #52322D",
":. c #5E352A",
">. c #593828",
",. c #4D2734",
"<. c #452D32",
"1. c #4C2C32",
"2. c #4B293A",
"3. c #522634",
"4. c #542C32",
"5. c #5E2C33",
"6. c #51253B",
"7. c #463131",
"8. c #4E303A",
"9. c #553233",
"0. c #593434",
"q. c #573836",
"w. c #5A3A37",
"e. c #5C3638",
"r. c #5C3B3B",
"t. c #6A282A",
"y. c #762A28",
"u. c #693627",
"i. c #63322B",
"p. c #75362D",
"a. c #692631",
"s. c #732A37",
"d. c #613635",
"f. c #633B34",
"g. c #693936",
"h. c #62363B",
"j. c #633C3B",
"k. c #6A3B3C",
"l. c #733133",
"z. c #71373C",
"x. c #54432F",
"c. c #59433B",
"v. c #65403B",
"b. c #64423D",
"n. c #794037",
"m. c #462D40",
"M. c #552942",
"N. c #5D3A40",
"B. c #633643",
"V. c #633A43",
"C. c #6D3B41",
"Z. c #733C44",
"A. c #713C4C",
"S. c #624142",
"D. c #694142",
"F. c #6A4149",
"G. c #8C1D0C",
"H. c #813805",
"J. c #813915",
"K. c #8D3C11",
"L. c #923613",
"P. c #993211",
"I. c #A23F04",
"U. c #8F4C18",
"Y. c #984A18",
"T. c #8C501C",
"R. c #9A5319",
"E. c #A95C00",
"W. c #B05F0D",
"Q. c #A0471B",
"!. c #AE730F",
"~. c #B9601C",
"^. c #8D422B",
"/. c #9A4726",
"(. c #87493E",
"). c #9B5834",
"_. c #A94825",
"`. c #A45B2E",
"'. c #AD5235",
"]. c #B56824",
"[. c #BA6E3A",
"{. c #B3783C",
"}. c #C8690D",
"|. c #CB740D",
" X c #C47E1C",
".X c #C35927",
"XX c #D27A21",
"oX c #C86D36",
"OX c #C87E37",
"+X c #A4684E",
"@X c #B87746",
"#X c #C27241",
"$X c #D88B1F",
"%X c #DE981E",
"&X c #E6891B",
"*X c #FFAC0E",
"=X c #CC8626",
"-X c #D7862A",
";X c #D69132",
":X c #E8872E",
">X c #E79027",
",X c #FEC216",
"<X c #BB8E4A",
"1X c #CD864E",
"2X c #D58F4A",
"3X c #E49342",
"4X c #D6A04A",
"5X c #F9AA4B",
"6X c #F8AF6A",
/* pixels */
"O.5XO.O.%.O.O.#.!.a ; k.j.* C 3.O.O.O.O.O.O.O.O.O.=.H O.%.O.%.O.",
"1.E.9.O.O.O.O.6.O.*X+X- <.u A.2.O.O.O.%.O.O.%.X.o.n Q O.O.O.O.O.",
"o.q B.k.f.5.O.O.X.&Xj.d.Q ,X2 4. .O.o.o.4.:.5 [ s 2X_ O.O.O.O.O.",
"o.r 1 , o 4 b.O.1.}.r.R O. .t.X = V.7.4 9 b XX_ 9.3.l.O.O.O.O.O.",
": i j T g.~ m #.o.}.h.o. .O.#.8.@Xf V U.Z.j.D. .#.3.l.O.%.O.%.I ",
"6Xc.9.%.%.} i.u : &XV.O.O.O.O.%.K C h.N.v.9.O.%.O. .k.D.9.@ N < ",
"! q.O.%.%.4. .<.%X,Xk.%.O.O.O.O.E Y d.O.%.4.O.O.O., - 3 = n :.} ",
"S h.O.O.O.O.O.O.O.@.C.O.O.O.O.O.1.1.k.4.O.%.%.0.{ 4 l t.k.7.%.%.",
"A j.O.O.O.O.%.%.O.O.Z D.r.e.O.O.| 7.t.1.- & - # O R.j.o.O.$.O.O.",
"c F.O.O.O.%.%.2.=.> >Xd n M $ 4 * & S > J ;XJ t.#.s 5 %.O.%.%.%.",
"m V.e.O.O.%.%.O 2 {.6.*.O. .X.*.T f ! y.r. .3.O.#.o.i j.O.O.O.o.",
"r * - 9.r.M.* k u.1.o.O.O.O.%.%.4.1.V. .X.O.%.O.O.#.<X4 - = 4 3 ",
"#X` % * & * '.e.O.%.4.4.4.%.%.%.4.U * 8. .%.O.O.O.R @Xa.B g H.~.",
"1.4.r.+.e I.+ d.%., - $ - o.j.%.%.<.Y H <.O.O.O.O.%.(.&.%. .$.4.",
"O.O.%.%.o.e.j.F F.k.j.z.) ( OXh 4 = 5 p h.9.O.%.%.o.s %.O.O.O.O.",
"O.O.O.O.O.O.;./ c.%.%.#.%.3.#. .;.#.p ~ = - = = 8 8 V %.O.O.O.O.",
"O.O.O.O.O.;.v n.O.O.O.%. .O.%.%.<.U 7 $XL.^ ^./.J.( A 4.O.O.O.O.",
"O.O.O.O.O.=.`.j.%.S.- - e.O.X.O.6 ] k Z.e.9.$.,.i.  Q.0.O.O.O.O.",
"O.O.O.o.V.. e O = 3 a R.[.' e q ' o e.O.O.O.O.O.O.@.B 0.O.X.O.O.",
"O.O.%.V.{ * x Y.@Xt &.V.V.r.w.:.W L B v N %.O.O.O.I K.%.O.} O.O.",
"4.w.0 $   :Xw k.>.+.O.%.O.O.o. .O. .O.%.%.O.O.O.O.P _.#...B.O.%.",
"& N J r u.#.G , ;.r.O.O.O.O.%.O.O.O.O.O.O.O.O.O.O.4./.V.  f. .o.",
"Y.c q.O. .M.( T.v 4 4 & w.%.%.O.O.O.O.O.O.O.O.O.O.m.X.- P.3 & z ",
"~ B.j.%.O.O.O.1.3.K. XQ d N O.%.O.O.O.O.O.O.O.%.O.O. .y.g ].^ C ",
"h z.O.O.O.%.O.,.O.].x.f.k..Xn O.O.O.O.O.O.O.O.O.O.d.- K s.f.R @.",
"#.C.O.O.%.O.O.%.o.p.1.O.O.j.-X% 9 ;.} %.O.O.O.%.h.4 7 J V. .O.O.",
"5.S.O.O.O.O.O.%.| ;.%.O.O.%.c.oXz % & = = = = = @ > J.j.O.o.O.O.",
"3.s.r.e.4.%.%.O.0.O.O.O.O.O.>.; |.3X1XA y F Y.OXW.G.:X0.O.O.O.O.",
"X.u - - 6 9.O.O.O.O.O.O.%.O.h.).4.1.o.D g.f.%.%.4.%.L.0.O.O.O.O.",
"-.w a.4Xb & r. .O.O.O.O.O.O.= a.o.1.%.V O. . .1.o.O.G } O.O.O.O.",
"4.y  .[ 9.C b 2 v.O.O.%.%.h._.3.O.%.O.%.O.O.O.O.O.$.l O.O.O.%.O.",
"%.=XO.O.%.%.%.).4 0.0.%.4.9.( X.O.O.O.4.O.O.O.O.O.4.r O.O.O.O.O."
};
