/* XPM */
static char *_4628e00a53044cad5b79cf2148d4cf3wzGyNxrXoDLPrGhJ[] = {
/* columns rows colors chars-per-pixel */
"32 32 166 2 ",
"   c #00010E",
".  c #00041A",
"X  c #000A1E",
"o  c #010522",
"O  c #020C24",
"+  c #020E29",
"@  c #021226",
"#  c #0B1224",
"$  c #04142C",
"%  c #0A132E",
"&  c #06182D",
"*  c #0B1C2E",
"=  c #131C2D",
"-  c #0C1234",
";  c #071931",
":  c #0C1C33",
">  c #0C1B38",
",  c #121733",
"<  c #121B34",
"1  c #141D39",
"2  c #0D202F",
"3  c #0E2033",
"4  c #122333",
"5  c #192535",
"6  c #162A35",
"7  c #14223A",
"8  c #1A243B",
"9  c #172A3A",
"0  c #1A2A3D",
"q  c #142342",
"w  c #1C2642",
"e  c #1C2A43",
"r  c #1C2649",
"t  c #1F2E49",
"y  c #1E3443",
"u  c #1C3844",
"i  c #1E394C",
"p  c #212D45",
"a  c #222D49",
"s  c #233345",
"d  c #293A44",
"f  c #24324C",
"g  c #29334D",
"h  c #263A4C",
"j  c #2A3C4C",
"k  c #253351",
"l  c #2A3552",
"z  c #2C3B54",
"x  c #2E3D5A",
"c  c #323B56",
"v  c #323E5B",
"b  c #2F3E61",
"n  c #323E61",
"m  c #26444F",
"M  c #2C414E",
"N  c #274056",
"B  c #2E4453",
"V  c #2E4855",
"C  c #2F425B",
"Z  c #2F4A5D",
"A  c #314354",
"S  c #334C54",
"D  c #33435C",
"F  c #38475E",
"G  c #334C5C",
"H  c #394E5E",
"J  c #2A575D",
"K  c #345155",
"L  c #34525D",
"P  c #3E555D",
"I  c #2F4262",
"U  c #2F4960",
"Y  c #344463",
"T  c #384665",
"R  c #344A63",
"E  c #394964",
"W  c #37456C",
"Q  c #3A4769",
"!  c #374A6B",
"~  c #3A4C6C",
"^  c #2D5A60",
"/  c #355462",
"(  c #395464",
")  c #345A64",
"_  c #36546A",
"`  c #3B516C",
"'  c #345F68",
"]  c #395968",
"[  c #3C4D71",
"{  c #3B497A",
"}  c #3C5173",
"|  c #3F5B74",
" . c #3E5479",
".. c #346267",
"X. c #366168",
"o. c #414865",
"O. c #424E69",
"+. c #415169",
"@. c #425374",
"#. c #405C72",
"$. c #42537B",
"%. c #49567A",
"&. c #45597C",
"*. c #4B5B7C",
"=. c #525D7B",
"-. c #4B6073",
";. c #41607C",
":. c #435681",
">. c #455984",
",. c #4D5D81",
"<. c #4B5B84",
"1. c #545B87",
"2. c #4C638F",
"3. c #546486",
"4. c #556A87",
"5. c #52658B",
"6. c #59678A",
"7. c #546C8C",
"8. c #596C8C",
"9. c #5E748D",
"0. c #4C6291",
"q. c #516695",
"w. c #536A95",
"e. c #586A90",
"r. c #51669B",
"t. c #586F99",
"y. c #5B7193",
"u. c #5E7899",
"i. c #627192",
"p. c #637299",
"a. c #62759E",
"s. c #627B9A",
"d. c #5D74A0",
"f. c #5E75A9",
"g. c #5B7BAE",
"h. c #6077A0",
"j. c #637BA1",
"k. c #6D7BA0",
"l. c #617BAE",
"z. c #697DAA",
"x. c #6580AD",
"c. c #6C82AB",
"v. c #7284A8",
"b. c #7A94A1",
"n. c #6483B5",
"m. c #758BB4",
"M. c #7288BA",
"N. c #7A96BB",
"B. c #6D89C8",
"V. c #708ECE",
"C. c #7A92C0",
"Z. c #7B96CB",
"A. c #7F9ED3",
"S. c #8299BB",
"D. c #8E9FBB",
"F. c #839ACE",
"G. c #899BCB",
"H. c #A7B6DD",
"J. c #97BFF2",
"K. c #A6BEE2",
"L. c #A9C0DF",
"P. c #AEC6EC",
"I. c #A7C6F2",
"U. c #C2DDFB",
"Y. c #CEE0F8",
"T. c #F7FFFF",
/* pixels */
"$ < 7.U.h.~ h , $ : p.<.*.2 ,.x.0.z.; ` c.. . + & y 0 @ @ : > > ",
"@ x x Y R D Y G v @ Y T D e Y Y D c & T ~ 8 ~ 4 :.{ Q D.* g.L.I.",
"$ D D l R Y ~ ~ x w a f 1 @ g D c v : ` l 2.D 9 a.n [ Y 6 x Y >.",
"@ F.Y Y v x x v x @.l D ! F w R T Y $ $.D v > e Y v Y x 7 Y E x ",
"3 7 G } [ ! D x z @ 1 O O * . > % % & Y R l e 7 Y Y Y : x &.~ z ",
"h r R ` Y T D Y z % Y R Y 5 f R  .T < R _ L 7 e E S M * f z a B ",
"e a R Y n Y D v ~ . @.E D 9 ~ z z z ,.& w 7 q D 7 O : * 6 G s y ",
"> k Y D Y Y F } $.O D C Y : x a.Y Y a z + c c % S v D f & m J.7 ",
"j e $.! q.v x D G * y.0.D o z x D x v.v 7 ` ( v f S w 3 < f v r ",
"B <.G D D Y F Y Y > } U c 5 C G D G Y D Q f y.=.& K.z R N l %.T ",
"f 8 x ` F _ ;.} e Y o > * & z M = d 9 / e & 1 : k } Y v x Y n x ",
"i.c.@.,.F.N.x & D Y D Y Y C l ~ %.>.Y l l w.Y x H.@.v } M.D x x ",
"v ) / S G G D v x V G G A 7 w 5 q > 7 X % O 1 1 @  .Y Y x x z x ",
"7 , A.z.& 4.P.S.c E %.1.m.5.7.Y D C Y Y D Y Y x t  .[ Y Z Y Y x ",
": R $.[ 3 Y 8 n.A.&. .D D A j.D R F Y D v D L j > T v D R ~ E ~ ",
"@ [ [ Y O z T ~ ~ } [ Y G c : F / L R ] u b *.D t + j z i 1 < @ ",
"z q.v D & l D ! R D Y Y G c + Y k ! D @.~ D Y Y + G.Z Z _ } R R ",
"z D Y Y = O.v 2.T Y D D c g + O l c : L u 0 G B t.v 0.b.x x D v ",
"g z M D $ Y t - l.>.Y Y D c d z z C.g g h h l @ q.Y ! v Y :.S v ",
"l H ' / O :.z E Y Y ~ Y G v = Y y Y Q x v v G v &.Y l D Y D D v ",
"x l @.5.x %.v ` @.Y $.w z S @ * z D x D @.Y %.v z v x D F x C c ",
"& z x D v : ) A | F ) ..L o h +.D Y Y Y Y Y R h @ o   O # < O . ",
"k Y [ ~ c O 5.%.Y c x z z x p c.x Y Y Y Y [ m.$.* Y Y R Y ! F D ",
"l z ! e D @.v a z D z x x x v s.$.~ Y d.Y D Y D 8.D Y R Y C v x ",
"f 0 ..L j v G L / ) L h ^ J u 7.B.D Y q.} Y Y Y C D [ } Y R Z Y ",
"; *.e.v k V.n.Z.t.T.Y.s Y K 7 s r.r Y Y ~ } ! D O / ( R R ( _ } ",
"f c v c . $.Y ` v Y ~ k v G g 4 @.O.Y ~ } ~ @.| O ~ 4.9.$ k.3.@.",
"D O , y.a Y Y @.Y D x D D A y C D Y } Y ~ O.v ~ < v c ! * z F l ",
"v < Y Y 4 ! T R Y C D D D A 7 D @.x v D $.Y v S k D D x 4 c f.o.",
"v -.v t O Y ~ D v x x v G E % +.j [ g.t } T A & w A Y b j f z D ",
"D v S ` % [ ~ G D D I ` ` u.O #.D Z R Y Y ~ Y B % z H P : g D Y ",
"Y g x Y 7 s ' ] ( D x X.( 4 O z g W l D x f z a v R R G 3 6.R R "
};
